<svg width="47" height="47" viewBox="0 0 47 47" fill="none" xmlns="http://www.w3.org/2000/svg">
<g clip-path="url(#clip0)">
<path fill-rule="evenodd" clip-rule="evenodd" d="M28.395 30.4982C28.395 30.9277 28.5454 31.2941 28.8452 31.5977C29.1452 31.9014 29.5074 32.0534 29.9317 32.0534C30.3556 32.0534 30.7178 31.9014 31.0178 31.5977C31.3179 31.2941 31.468 30.9277 31.468 30.4982C31.468 30.0689 31.318 29.7023 31.0178 29.3986C30.7178 29.0951 30.3556 28.943 29.9317 28.943C29.5074 28.943 29.1452 29.0951 28.8452 29.3986C28.5454 29.7023 28.395 30.0689 28.395 30.4982Z" fill="white"/>
<path fill-rule="evenodd" clip-rule="evenodd" d="M28.395 30.4982C28.395 30.9277 28.5454 31.2941 28.8452 31.5977C29.1452 31.9014 29.5074 32.0534 29.9317 32.0534C30.3556 32.0534 30.7178 31.9014 31.0178 31.5977C31.3179 31.2941 31.468 30.9277 31.468 30.4982C31.468 30.0689 31.318 29.7023 31.0178 29.3986C30.7178 29.0951 30.3556 28.943 29.9317 28.943C29.5074 28.943 29.1452 29.0951 28.8452 29.3986C28.5454 29.7023 28.395 30.0689 28.395 30.4982Z" fill="#001661"/>
<path fill-rule="evenodd" clip-rule="evenodd" d="M28.395 30.4982C28.395 30.9277 28.5454 31.2941 28.8452 31.5977C29.1452 31.9014 29.5074 32.0534 29.9317 32.0534C30.3556 32.0534 30.7178 31.9014 31.0178 31.5977C31.3179 31.2941 31.468 30.9277 31.468 30.4982C31.468 30.0689 31.318 29.7023 31.0178 29.3986C30.7178 29.0951 30.3556 28.943 29.9317 28.943C29.5074 28.943 29.1452 29.0951 28.8452 29.3986C28.5454 29.7023 28.395 30.0689 28.395 30.4982Z" stroke="white"/>
<path fill-rule="evenodd" clip-rule="evenodd" d="M28.395 30.4982C28.395 30.9277 28.5454 31.2941 28.8452 31.5977C29.1452 31.9014 29.5074 32.0534 29.9317 32.0534C30.3556 32.0534 30.7178 31.9014 31.0178 31.5977C31.3179 31.2941 31.468 30.9277 31.468 30.4982C31.468 30.0689 31.318 29.7023 31.0178 29.3986C30.7178 29.0951 30.3556 28.943 29.9317 28.943C29.5074 28.943 29.1452 29.0951 28.8452 29.3986C28.5454 29.7023 28.395 30.0689 28.395 30.4982Z" stroke="#001661"/>
<path fill-rule="evenodd" clip-rule="evenodd" d="M32.7763 16.7324C32.6242 16.5785 32.4443 16.5015 32.2363 16.5015H17.8209C17.8128 16.4449 17.7948 16.3417 17.7668 16.1918C17.7388 16.0419 17.7169 15.9225 17.7008 15.8333C17.6847 15.7444 17.6548 15.6371 17.6108 15.5115C17.5667 15.3859 17.5147 15.2866 17.4548 15.2138C17.3948 15.1408 17.3148 15.0781 17.2148 15.0254C17.1148 14.9729 17.0007 14.9465 16.8727 14.9465H13.8C13.5919 14.9465 13.4118 15.0236 13.2598 15.1773C13.1078 15.3312 13.0317 15.5136 13.0317 15.7241C13.0317 15.9347 13.1078 16.1169 13.2598 16.2708C13.412 16.4247 13.592 16.5017 13.8 16.5017H16.2484L18.3727 26.5008C18.3568 26.5332 18.2748 26.6871 18.1267 26.9625C17.9786 27.2381 17.8606 27.4789 17.7727 27.6854C17.6847 27.8921 17.6407 28.0521 17.6407 28.1655C17.6407 28.376 17.7167 28.5584 17.8687 28.7123C18.0209 28.8659 18.201 28.9431 18.409 28.9431H19.1771H29.9317H30.6994C30.9074 28.9431 31.0876 28.8659 31.2395 28.7123C31.3917 28.5584 31.4677 28.376 31.4677 28.1655C31.4677 27.9549 31.3917 27.7725 31.2395 27.6188C31.0876 27.4649 30.9074 27.3878 30.6994 27.3878H19.6571C19.8492 26.999 19.9452 26.74 19.9452 26.6104C19.9452 26.5291 19.9352 26.4401 19.9152 26.343C19.8951 26.246 19.8711 26.1386 19.8431 26.0209C19.8152 25.9037 19.7972 25.8166 19.7892 25.76L32.3204 24.2777C32.5203 24.2534 32.6844 24.1664 32.8124 24.0166C32.9405 23.8667 33.0044 23.6946 33.0044 23.5002V17.2793C33.0042 17.0688 32.9284 16.8866 32.7763 16.7324Z" fill="white"/>
<path fill-rule="evenodd" clip-rule="evenodd" d="M32.7763 16.7324C32.6242 16.5785 32.4443 16.5015 32.2363 16.5015H17.8209C17.8128 16.4449 17.7948 16.3417 17.7668 16.1918C17.7388 16.0419 17.7169 15.9225 17.7008 15.8333C17.6847 15.7444 17.6548 15.6371 17.6108 15.5115C17.5667 15.3859 17.5147 15.2866 17.4548 15.2138C17.3948 15.1408 17.3148 15.0781 17.2148 15.0254C17.1148 14.9729 17.0007 14.9465 16.8727 14.9465H13.8C13.5919 14.9465 13.4118 15.0236 13.2598 15.1773C13.1078 15.3312 13.0317 15.5136 13.0317 15.7241C13.0317 15.9347 13.1078 16.1169 13.2598 16.2708C13.412 16.4247 13.592 16.5017 13.8 16.5017H16.2484L18.3727 26.5008C18.3568 26.5332 18.2748 26.6871 18.1267 26.9625C17.9786 27.2381 17.8606 27.4789 17.7727 27.6854C17.6847 27.8921 17.6407 28.0521 17.6407 28.1655C17.6407 28.376 17.7167 28.5584 17.8687 28.7123C18.0209 28.8659 18.201 28.9431 18.409 28.9431H19.1771H29.9317H30.6994C30.9074 28.9431 31.0876 28.8659 31.2395 28.7123C31.3917 28.5584 31.4677 28.376 31.4677 28.1655C31.4677 27.9549 31.3917 27.7725 31.2395 27.6188C31.0876 27.4649 30.9074 27.3878 30.6994 27.3878H19.6571C19.8492 26.999 19.9452 26.74 19.9452 26.6104C19.9452 26.5291 19.9352 26.4401 19.9152 26.343C19.8951 26.246 19.8711 26.1386 19.8431 26.0209C19.8152 25.9037 19.7972 25.8166 19.7892 25.76L32.3204 24.2777C32.5203 24.2534 32.6844 24.1664 32.8124 24.0166C32.9405 23.8667 33.0044 23.6946 33.0044 23.5002V17.2793C33.0042 17.0688 32.9284 16.8866 32.7763 16.7324Z" fill="#001661"/>
<path fill-rule="evenodd" clip-rule="evenodd" d="M32.7763 16.7324C32.6242 16.5785 32.4443 16.5015 32.2363 16.5015H17.8209C17.8128 16.4449 17.7948 16.3417 17.7668 16.1918C17.7388 16.0419 17.7169 15.9225 17.7008 15.8333C17.6847 15.7444 17.6548 15.6371 17.6108 15.5115C17.5667 15.3859 17.5147 15.2866 17.4548 15.2138C17.3948 15.1408 17.3148 15.0781 17.2148 15.0254C17.1148 14.9729 17.0007 14.9465 16.8727 14.9465H13.8C13.5919 14.9465 13.4118 15.0236 13.2598 15.1773C13.1078 15.3312 13.0317 15.5136 13.0317 15.7241C13.0317 15.9347 13.1078 16.1169 13.2598 16.2708C13.412 16.4247 13.592 16.5017 13.8 16.5017H16.2484L18.3727 26.5008C18.3568 26.5332 18.2748 26.6871 18.1267 26.9625C17.9786 27.2381 17.8606 27.4789 17.7727 27.6854C17.6847 27.8921 17.6407 28.0521 17.6407 28.1655C17.6407 28.376 17.7167 28.5584 17.8687 28.7123C18.0209 28.8659 18.201 28.9431 18.409 28.9431H19.1771H29.9317H30.6994C30.9074 28.9431 31.0876 28.8659 31.2395 28.7123C31.3917 28.5584 31.4677 28.376 31.4677 28.1655C31.4677 27.9549 31.3917 27.7725 31.2395 27.6188C31.0876 27.4649 30.9074 27.3878 30.6994 27.3878H19.6571C19.8492 26.999 19.9452 26.74 19.9452 26.6104C19.9452 26.5291 19.9352 26.4401 19.9152 26.343C19.8951 26.246 19.8711 26.1386 19.8431 26.0209C19.8152 25.9037 19.7972 25.8166 19.7892 25.76L32.3204 24.2777C32.5203 24.2534 32.6844 24.1664 32.8124 24.0166C32.9405 23.8667 33.0044 23.6946 33.0044 23.5002V17.2793C33.0042 17.0688 32.9284 16.8866 32.7763 16.7324Z" stroke="white"/>
<path fill-rule="evenodd" clip-rule="evenodd" d="M32.7763 16.7324C32.6242 16.5785 32.4443 16.5015 32.2363 16.5015H17.8209C17.8128 16.4449 17.7948 16.3417 17.7668 16.1918C17.7388 16.0419 17.7169 15.9225 17.7008 15.8333C17.6847 15.7444 17.6548 15.6371 17.6108 15.5115C17.5667 15.3859 17.5147 15.2866 17.4548 15.2138C17.3948 15.1408 17.3148 15.0781 17.2148 15.0254C17.1148 14.9729 17.0007 14.9465 16.8727 14.9465H13.8C13.5919 14.9465 13.4118 15.0236 13.2598 15.1773C13.1078 15.3312 13.0317 15.5136 13.0317 15.7241C13.0317 15.9347 13.1078 16.1169 13.2598 16.2708C13.412 16.4247 13.592 16.5017 13.8 16.5017H16.2484L18.3727 26.5008C18.3568 26.5332 18.2748 26.6871 18.1267 26.9625C17.9786 27.2381 17.8606 27.4789 17.7727 27.6854C17.6847 27.8921 17.6407 28.0521 17.6407 28.1655C17.6407 28.376 17.7167 28.5584 17.8687 28.7123C18.0209 28.8659 18.201 28.9431 18.409 28.9431H19.1771H29.9317H30.6994C30.9074 28.9431 31.0876 28.8659 31.2395 28.7123C31.3917 28.5584 31.4677 28.376 31.4677 28.1655C31.4677 27.9549 31.3917 27.7725 31.2395 27.6188C31.0876 27.4649 30.9074 27.3878 30.6994 27.3878H19.6571C19.8492 26.999 19.9452 26.74 19.9452 26.6104C19.9452 26.5291 19.9352 26.4401 19.9152 26.343C19.8951 26.246 19.8711 26.1386 19.8431 26.0209C19.8152 25.9037 19.7972 25.8166 19.7892 25.76L32.3204 24.2777C32.5203 24.2534 32.6844 24.1664 32.8124 24.0166C32.9405 23.8667 33.0044 23.6946 33.0044 23.5002V17.2793C33.0042 17.0688 32.9284 16.8866 32.7763 16.7324Z" stroke="#001661"/>
<path fill-rule="evenodd" clip-rule="evenodd" d="M17.6406 30.4982C17.6406 30.9277 17.7906 31.2941 18.0907 31.5977C18.3909 31.9014 18.7529 32.0534 19.177 32.0534C19.601 32.0534 19.9631 31.9014 20.2632 31.5977C20.5633 31.2941 20.7135 30.9277 20.7135 30.4982C20.7135 30.0689 20.5635 29.7023 20.2632 29.3986C19.9631 29.0951 19.601 28.943 19.177 28.943C18.7529 28.943 18.3908 29.0951 18.0907 29.3986C17.7907 29.7023 17.6406 30.0689 17.6406 30.4982Z" fill="white"/>
<path fill-rule="evenodd" clip-rule="evenodd" d="M17.6406 30.4982C17.6406 30.9277 17.7906 31.2941 18.0907 31.5977C18.3909 31.9014 18.7529 32.0534 19.177 32.0534C19.601 32.0534 19.9631 31.9014 20.2632 31.5977C20.5633 31.2941 20.7135 30.9277 20.7135 30.4982C20.7135 30.0689 20.5635 29.7023 20.2632 29.3986C19.9631 29.0951 19.601 28.943 19.177 28.943C18.7529 28.943 18.3908 29.0951 18.0907 29.3986C17.7907 29.7023 17.6406 30.0689 17.6406 30.4982Z" fill="#001661"/>
<path fill-rule="evenodd" clip-rule="evenodd" d="M17.6406 30.4982C17.6406 30.9277 17.7906 31.2941 18.0907 31.5977C18.3909 31.9014 18.7529 32.0534 19.177 32.0534C19.601 32.0534 19.9631 31.9014 20.2632 31.5977C20.5633 31.2941 20.7135 30.9277 20.7135 30.4982C20.7135 30.0689 20.5635 29.7023 20.2632 29.3986C19.9631 29.0951 19.601 28.943 19.177 28.943C18.7529 28.943 18.3908 29.0951 18.0907 29.3986C17.7907 29.7023 17.6406 30.0689 17.6406 30.4982Z" stroke="white"/>
<path fill-rule="evenodd" clip-rule="evenodd" d="M17.6406 30.4982C17.6406 30.9277 17.7906 31.2941 18.0907 31.5977C18.3909 31.9014 18.7529 32.0534 19.177 32.0534C19.601 32.0534 19.9631 31.9014 20.2632 31.5977C20.5633 31.2941 20.7135 30.9277 20.7135 30.4982C20.7135 30.0689 20.5635 29.7023 20.2632 29.3986C19.9631 29.0951 19.601 28.943 19.177 28.943C18.7529 28.943 18.3908 29.0951 18.0907 29.3986C17.7907 29.7023 17.6406 30.0689 17.6406 30.4982Z" stroke="#001661"/>
<rect x="1" y="1" width="45" height="45" rx="22.5" stroke="white" stroke-width="2"/>
<rect x="1" y="1" width="45" height="45" rx="22.5" stroke="#001661" stroke-width="2"/>
</g>
<defs>
<clipPath id="clip0">
<rect width="47" height="47" fill="white"/>
</clipPath>
</defs>
</svg>
