<svg width="15" height="15" viewBox="0 0 15 15" fill="none" xmlns="http://www.w3.org/2000/svg">
<path fill-rule="evenodd" clip-rule="evenodd" d="M14.3863 0.613645C14.0113 0.238525 13.5617 0.0510254 13.0382 0.0510254H1.96161C1.43781 0.0510254 0.988519 0.238644 0.6134 0.613645C0.238281 0.988645 0.0507812 1.43805 0.0507812 1.96174V13.0382C0.0507812 13.5619 0.238281 14.0113 0.6134 14.3863C0.988519 14.7614 1.43792 14.949 1.96161 14.949H13.038C13.5616 14.949 14.0111 14.7614 14.3861 14.3863C14.7613 14.0113 14.9486 13.5619 14.9486 13.0382V1.96174C14.9486 1.43793 14.7613 0.988764 14.3863 0.613645V0.613645ZM5.40007 5.41948C5.98518 4.85376 6.6884 4.57079 7.50959 4.57079C8.33721 4.57079 9.04364 4.85376 9.62888 5.41948C10.214 5.98531 10.5066 6.66912 10.5066 7.47091C10.5066 8.27257 10.214 8.9565 9.62888 9.5221C9.04364 10.0879 8.33733 10.3709 7.50959 10.3709C6.6884 10.3709 5.9853 10.0878 5.40007 9.5221C4.81483 8.95638 4.52221 8.27257 4.52221 7.47091C4.52221 6.66912 4.81483 5.98531 5.40007 5.41948V5.41948ZM13.2613 12.6407C13.2613 12.8086 13.2029 12.9492 13.0866 13.0625C12.9701 13.1757 12.8311 13.2322 12.6694 13.2322H2.30114C2.13304 13.2322 1.99233 13.1757 1.87923 13.0625C1.76602 12.9495 1.70947 12.8086 1.70947 12.6407V6.35543H3.07697C2.94769 6.76281 2.88304 7.18638 2.88304 7.62602C2.88304 8.86769 3.33566 9.9265 4.2409 10.8027C5.14626 11.6788 6.23578 12.117 7.50959 12.117C8.35019 12.117 9.12614 11.9164 9.83757 11.5155C10.5489 11.1145 11.1111 10.5698 11.5252 9.88114C11.9391 9.19245 12.146 8.44067 12.146 7.62602C12.146 7.18638 12.0811 6.76293 11.9519 6.35543H13.2614V12.6407H13.2613ZM13.2613 3.97912C13.2613 4.16662 13.1966 4.32507 13.0671 4.45436C12.9378 4.58376 12.7795 4.64841 12.5918 4.64841H10.9042C10.7169 4.64841 10.5583 4.58376 10.429 4.45436C10.2997 4.32507 10.2351 4.16662 10.2351 3.97912V2.37888C10.2351 2.19781 10.2997 2.04103 10.429 1.90841C10.5583 1.77591 10.7169 1.7096 10.9042 1.7096H12.5918C12.7795 1.7096 12.9378 1.77591 13.0671 1.90841C13.1966 2.04103 13.2613 2.19781 13.2613 2.37888V3.97912V3.97912Z" fill="white"/>
</svg>
