<svg width="20" height="17" viewBox="0 0 20 17" fill="none" xmlns="http://www.w3.org/2000/svg">
<path fill-rule="evenodd" clip-rule="evenodd" d="M18.7067 1.45682C18.3708 1.1209 17.967 0.953003 17.4954 0.953003H1.71526C1.24355 0.953003 0.839737 1.1209 0.503816 1.45682C0.167895 1.79274 0 2.19656 0 2.66827V14.332C0 14.8037 0.167895 15.2072 0.503816 15.5431C0.839737 15.8793 1.24355 16.0471 1.71526 16.0471H17.4954C17.967 16.0471 18.3708 15.8793 18.7067 15.5431C19.0428 15.2072 19.2105 14.8035 19.2105 14.332V2.66827C19.2105 2.19656 19.0428 1.79274 18.7067 1.45682V1.45682ZM17.8382 14.3317C17.8382 14.4246 17.8042 14.505 17.7363 14.5729C17.6684 14.6408 17.588 14.6746 17.4953 14.6746H1.71513C1.62224 14.6746 1.54184 14.6408 1.47395 14.5729C1.40605 14.505 1.37211 14.4246 1.37211 14.3317V6.09866C1.60079 6.3559 1.84737 6.59182 2.11184 6.80616C4.02724 8.2784 5.54947 9.48616 6.67868 10.4296C7.04316 10.7369 7.33974 10.9763 7.56842 11.1479C7.7971 11.3194 8.10618 11.4926 8.49566 11.6677C8.88513 11.8429 9.25145 11.9302 9.59447 11.9302H9.60526H9.61592C9.95882 11.9302 10.3254 11.8429 10.7147 11.6677C11.1043 11.4926 11.4136 11.3194 11.6422 11.1479C11.8708 10.9763 12.1675 10.7369 12.532 10.4296C13.6612 9.48616 15.1833 8.2784 17.0987 6.80616C17.3632 6.59182 17.6099 6.3559 17.8383 6.09866V14.3317H17.8382ZM17.8382 2.94695V3.06485C17.8382 3.48642 17.6721 3.95642 17.3399 4.47445C17.0076 4.99261 16.6483 5.40537 16.2625 5.71261C14.883 6.79906 13.4503 7.93169 11.9636 9.1109C11.9207 9.14656 11.7955 9.25208 11.5883 9.42708C11.3812 9.60221 11.2167 9.73642 11.0951 9.82919C10.9736 9.92221 10.8147 10.0347 10.6182 10.1668C10.4216 10.2989 10.2412 10.3973 10.0768 10.4616C9.9125 10.5258 9.75882 10.5579 9.61593 10.5579H9.60527H9.59448C9.45158 10.5579 9.29803 10.5258 9.13356 10.4616C8.96921 10.3973 8.78869 10.2989 8.59224 10.1668C8.39579 10.0347 8.23671 9.92221 8.11527 9.82919C7.99382 9.73642 7.82935 9.60221 7.62211 9.42708C7.41487 9.25208 7.28974 9.14656 7.24685 9.1109C5.7604 7.93169 4.3275 6.79906 2.94816 5.71261C1.8975 4.88366 1.37224 3.86879 1.37224 2.66813C1.37224 2.57524 1.40619 2.49485 1.47408 2.42695C1.54197 2.35906 1.62237 2.32511 1.71526 2.32511H17.4954C17.5525 2.35721 17.6025 2.36616 17.6455 2.35195C17.6884 2.33748 17.7205 2.36432 17.7418 2.43221C17.7633 2.50011 17.7829 2.53221 17.8008 2.52866C17.8187 2.52511 17.8295 2.56971 17.833 2.66274C17.8363 2.75563 17.8382 2.80235 17.8382 2.80235V2.94695V2.94695Z" fill="white"/>
</svg>
