<svg width="12" height="19" viewBox="0 0 12 19" fill="none" xmlns="http://www.w3.org/2000/svg">
<path fill-rule="evenodd" clip-rule="evenodd" d="M10.675 1.48276C10.3378 1.14521 9.93812 0.976685 9.4765 0.976685H2.65787C2.19609 0.976685 1.79659 1.14538 1.4592 1.48276C1.12182 1.81998 0.953125 2.21965 0.953125 2.68126V16.3187C0.953125 16.7805 1.12182 17.18 1.4592 17.5174C1.79659 17.8547 2.19609 18.0234 2.65787 18.0234H9.4765C9.93812 18.0234 10.3378 17.8546 10.675 17.5174C11.0124 17.18 11.1811 16.7805 11.1811 16.3187V2.68126C11.1811 2.21965 11.0125 1.82015 10.675 1.48276V1.48276ZM5.00174 2.68126H7.13262C7.27467 2.68126 7.34561 2.75237 7.34561 2.89441C7.34561 3.03646 7.27467 3.10757 7.13262 3.10757H5.00174C4.85969 3.10757 4.78859 3.03646 4.78859 2.89441C4.78859 2.75237 4.85969 2.68126 5.00174 2.68126V2.68126ZM6.81976 17.0713C6.61102 17.2797 6.36027 17.3841 6.06718 17.3841C5.77426 17.3841 5.52351 17.2798 5.31477 17.0713C5.10603 16.8625 5.00174 16.6116 5.00174 16.3187C5.00174 16.0258 5.10619 15.7749 5.31477 15.5663C5.52335 15.3577 5.77426 15.2531 6.06718 15.2531C6.36027 15.2531 6.61102 15.3577 6.81976 15.5663C7.0285 15.7749 7.13262 16.0258 7.13262 16.3187C7.13262 16.6118 7.02834 16.8625 6.81976 17.0713V17.0713ZM9.90281 14.188C9.90281 14.3034 9.86063 14.4034 9.77613 14.4876C9.69162 14.5719 9.5919 14.614 9.47666 14.614H2.65787C2.54246 14.614 2.44259 14.5718 2.35824 14.4876C2.27389 14.4034 2.23172 14.3034 2.23172 14.188V4.81231C2.23172 4.69691 2.27389 4.59703 2.35824 4.51268C2.44259 4.4285 2.54246 4.38617 2.65787 4.38617H9.4765C9.59207 4.38617 9.69178 4.42834 9.77629 4.51268C9.86063 4.59703 9.90264 4.69691 9.90264 4.81231V14.188H9.90281Z" fill="white"/>
</svg>
