<svg width="48" height="47" viewBox="0 0 48 47" fill="none" xmlns="http://www.w3.org/2000/svg">
<g clip-path="url(#clip0)">
<rect x="1" y="1" width="45" height="45" rx="22.5" stroke="white" stroke-width="2"/>
<rect x="1" y="1" width="45" height="45" rx="22.5" stroke="#001661" stroke-width="2"/>
<path fill-rule="evenodd" clip-rule="evenodd" d="M31.5961 29.7531L28.103 26.26C28.9449 25.0447 29.366 23.6901 29.366 22.1965C29.366 21.2256 29.1775 20.2971 28.8006 19.4111C28.4239 18.525 27.9146 17.7612 27.273 17.1196C26.6314 16.478 25.8677 15.9687 24.9817 15.592C24.0955 15.2151 23.167 15.0267 22.1961 15.0267C21.2252 15.0267 20.2967 15.2151 19.4107 15.592C18.5246 15.9687 17.7609 16.478 17.1192 17.1196C16.4776 17.7612 15.9684 18.5251 15.5916 19.4111C15.2147 20.2972 15.0264 21.2256 15.0264 22.1965C15.0264 23.1674 15.2147 24.0956 15.5916 24.9819C15.9684 25.8679 16.4776 26.6315 17.1192 27.2731C17.7609 27.9149 18.5247 28.424 19.4107 28.8009C20.2969 29.1777 21.2252 29.3661 22.1961 29.3661C23.69 29.3661 25.0445 28.945 26.2597 28.1031L29.7529 31.586C29.9972 31.844 30.3025 31.973 30.6694 31.973C31.0224 31.973 31.3281 31.844 31.5859 31.586C31.8439 31.3281 31.9729 31.0225 31.9729 30.6695C31.973 30.3099 31.8475 30.0042 31.5961 29.7531ZM25.4195 25.4196C24.5266 26.3125 23.4522 26.7589 22.1961 26.7589C20.9401 26.7589 19.8657 26.3124 18.9729 25.4196C18.08 24.5267 17.6336 23.4525 17.6336 22.1964C17.6336 20.9404 18.0801 19.8659 18.9729 18.9731C19.8656 18.0802 20.9401 17.6339 22.1961 17.6339C23.4521 17.6339 24.5265 18.0804 25.4195 18.9731C26.3124 19.8659 26.7589 20.9404 26.7589 22.1964C26.7589 23.4525 26.3122 24.5267 25.4195 25.4196Z" fill="white"/>
<path fill-rule="evenodd" clip-rule="evenodd" d="M31.5961 29.7531L28.103 26.26C28.9449 25.0447 29.366 23.6901 29.366 22.1965C29.366 21.2256 29.1775 20.2971 28.8006 19.4111C28.4239 18.525 27.9146 17.7612 27.273 17.1196C26.6314 16.478 25.8677 15.9687 24.9817 15.592C24.0955 15.2151 23.167 15.0267 22.1961 15.0267C21.2252 15.0267 20.2967 15.2151 19.4107 15.592C18.5246 15.9687 17.7609 16.478 17.1192 17.1196C16.4776 17.7612 15.9684 18.5251 15.5916 19.4111C15.2147 20.2972 15.0264 21.2256 15.0264 22.1965C15.0264 23.1674 15.2147 24.0956 15.5916 24.9819C15.9684 25.8679 16.4776 26.6315 17.1192 27.2731C17.7609 27.9149 18.5247 28.424 19.4107 28.8009C20.2969 29.1777 21.2252 29.3661 22.1961 29.3661C23.69 29.3661 25.0445 28.945 26.2597 28.1031L29.7529 31.586C29.9972 31.844 30.3025 31.973 30.6694 31.973C31.0224 31.973 31.3281 31.844 31.5859 31.586C31.8439 31.3281 31.9729 31.0225 31.9729 30.6695C31.973 30.3099 31.8475 30.0042 31.5961 29.7531ZM25.4195 25.4196C24.5266 26.3125 23.4522 26.7589 22.1961 26.7589C20.9401 26.7589 19.8657 26.3124 18.9729 25.4196C18.08 24.5267 17.6336 23.4525 17.6336 22.1964C17.6336 20.9404 18.0801 19.8659 18.9729 18.9731C19.8656 18.0802 20.9401 17.6339 22.1961 17.6339C23.4521 17.6339 24.5265 18.0804 25.4195 18.9731C26.3124 19.8659 26.7589 20.9404 26.7589 22.1964C26.7589 23.4525 26.3122 24.5267 25.4195 25.4196Z" fill="#001661"/>
</g>
<defs>
<clipPath id="clip0">
<rect width="48" height="47" fill="white"/>
</clipPath>
</defs>
</svg>
