<svg width="15" height="15" viewBox="0 0 15 15" fill="none" xmlns="http://www.w3.org/2000/svg">
<path fill-rule="evenodd" clip-rule="evenodd" d="M13.9498 3.76091C13.2838 2.61972 12.3802 1.71614 11.239 1.05007C10.0976 0.384002 8.8515 0.0510254 7.49995 0.0510254C6.14852 0.0510254 4.90209 0.384002 3.7609 1.05007C2.61959 1.71603 1.71602 2.6196 1.04995 3.76091C0.383757 4.90222 0.0507812 6.14864 0.0507812 7.49995C0.0507812 8.85138 0.383877 10.0976 1.04983 11.239C1.7159 12.3801 2.61947 13.2838 3.76078 13.9498C4.90209 14.6159 6.1484 14.9489 7.49983 14.9489C8.85126 14.9489 10.0977 14.6159 11.2389 13.9498C12.3801 13.2839 13.2836 12.3802 13.9497 11.239C14.6157 10.0977 14.9486 8.85126 14.9486 7.49995C14.9486 6.14852 14.6157 4.9021 13.9498 3.76091V3.76091ZM12.0682 10.1478C11.5961 10.956 10.956 11.5963 10.1477 12.0683C9.33947 12.5403 8.45685 12.7761 7.49983 12.7761C6.54292 12.7761 5.6603 12.5403 4.85197 12.0683C4.04376 11.5963 3.40364 10.956 2.93161 10.1478C2.45947 9.3396 2.22352 8.45698 2.22352 7.49995C2.22352 6.54293 2.45959 5.66031 2.93161 4.8521C3.40352 4.04388 4.04376 3.40364 4.85197 2.93162C5.66019 2.4596 6.5428 2.22364 7.49983 2.22364C8.45685 2.22364 9.33947 2.4596 10.1477 2.93162C10.956 3.40364 11.5961 4.04388 12.0682 4.8521C12.5402 5.66031 12.776 6.54293 12.776 7.49995C12.776 8.45698 12.5402 9.3396 12.0682 10.1478V10.1478Z" fill="white"/>
<path fill-rule="evenodd" clip-rule="evenodd" d="M8.43126 3.77539H7.81042C7.71971 3.77539 7.64554 3.80456 7.58721 3.86265C7.52923 3.92087 7.50007 3.99515 7.50007 4.08575V7.49991H5.32745C5.23685 7.49991 5.16257 7.52896 5.10435 7.58706C5.04614 7.64515 5.01709 7.71956 5.01709 7.81027V8.43098C5.01709 8.52158 5.04614 8.59586 5.10435 8.65408C5.16257 8.71217 5.23697 8.74122 5.32745 8.74122H8.43138C8.52185 8.74122 8.59626 8.71217 8.65423 8.65408C8.71233 8.59586 8.74161 8.52158 8.74161 8.43098V4.08575C8.74161 3.99527 8.71233 3.92099 8.65423 3.86265C8.59614 3.80456 8.52173 3.77539 8.43126 3.77539V3.77539Z" fill="white"/>
</svg>
