<svg width="28" height="15" viewBox="0 0 28 15" fill="none" xmlns="http://www.w3.org/2000/svg">
<path fill-rule="evenodd" clip-rule="evenodd" d="M26.902 13.4983C26.8705 13.4303 26.841 13.3738 26.8136 13.3286C26.3611 12.5136 25.4965 11.5133 24.22 10.3275L24.193 10.3003L24.1795 10.287L24.1658 10.2733H24.1521C23.5728 9.72098 23.206 9.34981 23.0523 9.15964C22.7713 8.79748 22.7083 8.43098 22.862 8.05964C22.9705 7.77898 23.3781 7.18631 24.0841 6.28098C24.4553 5.80114 24.7495 5.41648 24.9666 5.12681C26.5328 3.04464 27.2118 1.71398 27.0035 1.13464L26.9226 0.999144C26.8683 0.917644 26.728 0.843144 26.502 0.775144C26.2755 0.707144 25.9858 0.695977 25.6326 0.741144L21.722 0.76831C21.6586 0.74581 21.5681 0.747977 21.4503 0.775144C21.3326 0.80231 21.2736 0.815977 21.2736 0.815977L21.2056 0.849977L21.1516 0.89081C21.1065 0.91781 21.0566 0.96531 21.0023 1.03314C20.9483 1.10098 20.903 1.18031 20.8668 1.27081C20.4411 2.36614 19.957 3.38464 19.4138 4.32598C19.0788 4.88731 18.7711 5.37381 18.4903 5.78581C18.2096 6.19764 17.9743 6.50098 17.7843 6.69548C17.5941 6.89014 17.4223 7.04614 17.2683 7.16398C17.1143 7.28181 16.9968 7.33148 16.9153 7.31331C16.8338 7.29514 16.757 7.27698 16.6843 7.25898C16.5576 7.17748 16.4558 7.06664 16.379 6.92631C16.3018 6.78598 16.2498 6.60931 16.2226 6.39664C16.1956 6.18381 16.1796 6.00064 16.1751 5.84664C16.1708 5.69281 16.1728 5.47548 16.182 5.19481C16.1913 4.91414 16.1956 4.72414 16.1956 4.62448C16.1956 4.28048 16.2023 3.90714 16.2158 3.50431C16.2295 3.10148 16.2406 2.78231 16.2498 2.54698C16.259 2.31164 16.2633 2.06264 16.2633 1.80014C16.2633 1.53764 16.2475 1.33164 16.2158 1.18231C16.1845 1.03298 16.1368 0.888144 16.0735 0.74781C16.01 0.607477 15.9171 0.49881 15.7951 0.42181C15.673 0.344977 15.5211 0.28381 15.3403 0.238477C14.8605 0.129977 14.2495 0.0711437 13.507 0.061977C11.8233 0.043977 10.7415 0.152644 10.2616 0.387977C10.0715 0.487477 9.89946 0.62331 9.74563 0.79531C9.58263 0.994477 9.55996 1.10314 9.67763 1.12114C10.2208 1.20248 10.6055 1.39714 10.8318 1.70498L10.9133 1.86798C10.9768 1.98564 11.0401 2.19398 11.1035 2.49264C11.1668 2.79131 11.2076 3.12181 11.2256 3.48381C11.2708 4.14464 11.2708 4.71048 11.2256 5.18114C11.1803 5.65198 11.1375 6.01864 11.0966 6.28114C11.0558 6.54364 10.9948 6.75631 10.9133 6.91931C10.8318 7.08214 10.7775 7.18181 10.7503 7.21798C10.7231 7.25414 10.7005 7.27681 10.6825 7.28581C10.5648 7.33098 10.4425 7.35381 10.3158 7.35381C10.189 7.35381 10.0351 7.29031 9.85413 7.16364C9.67313 7.03681 9.4853 6.86264 9.29063 6.64081C9.09596 6.41898 8.87646 6.10898 8.63196 5.71064C8.38763 5.31231 8.13413 4.84164 7.87163 4.29848L7.65446 3.90464C7.51863 3.65114 7.33313 3.28231 7.0978 2.79798C6.8623 2.31364 6.65413 1.84514 6.47313 1.39248C6.4008 1.20231 6.29213 1.05764 6.1473 0.957977L6.0793 0.917144C6.03413 0.880977 5.96163 0.842644 5.86213 0.80181C5.76246 0.760977 5.65846 0.731644 5.5498 0.713477L1.82913 0.740644C1.44896 0.740644 1.19096 0.826644 1.05513 0.998644L1.00079 1.08014C0.973628 1.12531 0.959961 1.19781 0.959961 1.29731C0.959961 1.39698 0.987128 1.51914 1.04146 1.66398C1.58463 2.94048 2.17529 4.17164 2.81346 5.35748C3.45163 6.54331 4.00613 7.49848 4.47679 8.22231C4.94746 8.94664 5.4273 9.63015 5.91613 10.2728C6.40496 10.9155 6.72863 11.3275 6.88696 11.5085C7.04546 11.6898 7.16996 11.8253 7.26046 11.9158L7.59996 12.2416C7.8173 12.459 8.1363 12.7193 8.5573 13.0225C8.9783 13.3258 9.44446 13.6245 9.95596 13.919C10.4675 14.213 11.0626 14.4528 11.7416 14.6383C12.4206 14.8241 13.0815 14.8986 13.7241 14.8626H15.2858C15.6025 14.8353 15.8425 14.7356 16.0055 14.5638L16.0595 14.4958C16.0958 14.4418 16.1298 14.3578 16.1613 14.2448C16.193 14.1316 16.2088 14.007 16.2088 13.8715C16.1996 13.4823 16.2291 13.1315 16.297 12.8191C16.3646 12.507 16.4418 12.2716 16.528 12.1131C16.6141 11.9548 16.7115 11.8211 16.8198 11.7128C16.9285 11.6041 17.0056 11.5385 17.051 11.5158C17.0961 11.493 17.1321 11.4775 17.1593 11.4683C17.3766 11.3958 17.6323 11.466 17.9266 11.6788C18.221 11.8916 18.497 12.1543 18.7551 12.4665C19.0131 12.779 19.3231 13.1296 19.6851 13.5188C20.0475 13.908 20.3641 14.1975 20.6356 14.3878L20.9071 14.5508C21.0885 14.6595 21.3238 14.7591 21.6135 14.8496C21.9028 14.9401 22.1561 14.9628 22.3738 14.9175L25.8498 14.8633C26.1936 14.8633 26.4611 14.8063 26.651 14.6933C26.8411 14.5803 26.954 14.4556 26.9905 14.32C27.0268 14.1843 27.0288 14.0303 26.9973 13.8581C26.9653 13.6863 26.9336 13.5663 26.902 13.4983V13.4983Z" fill="white"/>
</svg>
